<!-- QR ini hanya CONTOH. Ganti dengan QRIS asli milik toko Anda. -->
<svg xmlns="http://www.w3.org/2000/svg" width="300" height="300" viewBox="0 0 300 300">
<rect width="300" height="300" fill="#FFFFFF"/>
<rect x="96.0" y="0.0" width="12.0" height="12.0" fill="#8B5E3C"/>
<rect x="108.0" y="0.0" width="12.0" height="12.0" fill="#8B5E3C"/>
<rect x="132.0" y="0.0" width="12.0" height="12.0" fill="#8B5E3C"/>
<rect x="156.0" y="0.0" width="12.0" height="12.0" fill="#8B5E3C"/>
<rect x="168.0" y="0.0" width="12.0" height="12.0" fill="#8B5E3C"/>
<rect x="192.0" y="0.0" width="12.0" height="12.0" fill="#8B5E3C"/>
<rect x="96.0" y="12.0" width="12.0" height="12.0" fill="#8B5E3C"/>
<rect x="108.0" y="12.0" width="12.0" height="12.0" fill="#8B5E3C"/>
<rect x="120.0" y="12.0" width="12.0" height="12.0" fill="#8B5E3C"/>
<rect x="132.0" y="12.0" width="12.0" height="12.0" fill="#8B5E3C"/>
<rect x="156.0" y="12.0" width="12.0" height="12.0" fill="#8B5E3C"/>
<rect x="168.0" y="12.0" width="12.0" height="12.0" fill="#8B5E3C"/>
<rect x="108.0" y="24.0" width="12.0" height="12.0" fill="#8B5E3C"/>
<rect x="132.0" y="24.0" width="12.0" height="12.0" fill="#8B5E3C"/>
<rect x="156.0" y="24.0" width="12.0" height="12.0" fill="#8B5E3C"/>
<rect x="168.0" y="24.0" width="12.0" height="12.0" fill="#8B5E3C"/>
<rect x="180.0" y="24.0" width="12.0" height="12.0" fill="#8B5E3C"/>
<rect x="192.0" y="24.0" width="12.0" height="12.0" fill="#8B5E3C"/>
<rect x="108.0" y="36.0" width="12.0" height="12.0" fill="#8B5E3C"/>
<rect x="144.0" y="36.0" width="12.0" height="12.0" fill="#8B5E3C"/>
<rect x="168.0" y="36.0" width="12.0" height="12.0" fill="#8B5E3C"/>
<rect x="180.0" y="36.0" width="12.0" height="12.0" fill="#8B5E3C"/>
<rect x="192.0" y="36.0" width="12.0" height="12.0" fill="#8B5E3C"/>
<rect x="108.0" y="48.0" width="12.0" height="12.0" fill="#8B5E3C"/>
<rect x="120.0" y="48.0" width="12.0" height="12.0" fill="#8B5E3C"/>
<rect x="156.0" y="48.0" width="12.0" height="12.0" fill="#8B5E3C"/>
<rect x="192.0" y="48.0" width="12.0" height="12.0" fill="#8B5E3C"/>
<rect x="144.0" y="60.0" width="12.0" height="12.0" fill="#8B5E3C"/>
<rect x="168.0" y="60.0" width="12.0" height="12.0" fill="#8B5E3C"/>
<rect x="180.0" y="60.0" width="12.0" height="12.0" fill="#8B5E3C"/>
<rect x="96.0" y="72.0" width="12.0" height="12.0" fill="#8B5E3C"/>
<rect x="120.0" y="72.0" width="12.0" height="12.0" fill="#8B5E3C"/>
<rect x="180.0" y="72.0" width="12.0" height="12.0" fill="#8B5E3C"/>
<rect x="180.0" y="84.0" width="12.0" height="12.0" fill="#8B5E3C"/>
<rect x="36.0" y="96.0" width="12.0" height="12.0" fill="#8B5E3C"/>
<rect x="48.0" y="96.0" width="12.0" height="12.0" fill="#8B5E3C"/>
<rect x="72.0" y="96.0" width="12.0" height="12.0" fill="#8B5E3C"/>
<rect x="96.0" y="96.0" width="12.0" height="12.0" fill="#8B5E3C"/>
<rect x="108.0" y="96.0" width="12.0" height="12.0" fill="#8B5E3C"/>
<rect x="120.0" y="96.0" width="12.0" height="12.0" fill="#8B5E3C"/>
<rect x="144.0" y="96.0" width="12.0" height="12.0" fill="#8B5E3C"/>
<rect x="156.0" y="96.0" width="12.0" height="12.0" fill="#8B5E3C"/>
<rect x="168.0" y="96.0" width="12.0" height="12.0" fill="#8B5E3C"/>
<rect x="192.0" y="96.0" width="12.0" height="12.0" fill="#8B5E3C"/>
<rect x="204.0" y="96.0" width="12.0" height="12.0" fill="#8B5E3C"/>
<rect x="264.0" y="96.0" width="12.0" height="12.0" fill="#8B5E3C"/>
<rect x="276.0" y="96.0" width="12.0" height="12.0" fill="#8B5E3C"/>
<rect x="288.0" y="96.0" width="12.0" height="12.0" fill="#8B5E3C"/>
<rect x="24.0" y="108.0" width="12.0" height="12.0" fill="#8B5E3C"/>
<rect x="36.0" y="108.0" width="12.0" height="12.0" fill="#8B5E3C"/>
<rect x="48.0" y="108.0" width="12.0" height="12.0" fill="#8B5E3C"/>
<rect x="60.0" y="108.0" width="12.0" height="12.0" fill="#8B5E3C"/>
<rect x="96.0" y="108.0" width="12.0" height="12.0" fill="#8B5E3C"/>
<rect x="108.0" y="108.0" width="12.0" height="12.0" fill="#8B5E3C"/>
<rect x="120.0" y="108.0" width="12.0" height="12.0" fill="#8B5E3C"/>
<rect x="132.0" y="108.0" width="12.0" height="12.0" fill="#8B5E3C"/>
<rect x="216.0" y="108.0" width="12.0" height="12.0" fill="#8B5E3C"/>
<rect x="276.0" y="108.0" width="12.0" height="12.0" fill="#8B5E3C"/>
<rect x="288.0" y="108.0" width="12.0" height="12.0" fill="#8B5E3C"/>
<rect x="0.0" y="120.0" width="12.0" height="12.0" fill="#8B5E3C"/>
<rect x="24.0" y="120.0" width="12.0" height="12.0" fill="#8B5E3C"/>
<rect x="36.0" y="120.0" width="12.0" height="12.0" fill="#8B5E3C"/>
<rect x="48.0" y="120.0" width="12.0" height="12.0" fill="#8B5E3C"/>
<rect x="60.0" y="120.0" width="12.0" height="12.0" fill="#8B5E3C"/>
<rect x="72.0" y="120.0" width="12.0" height="12.0" fill="#8B5E3C"/>
<rect x="84.0" y="120.0" width="12.0" height="12.0" fill="#8B5E3C"/>
<rect x="96.0" y="120.0" width="12.0" height="12.0" fill="#8B5E3C"/>
<rect x="108.0" y="120.0" width="12.0" height="12.0" fill="#8B5E3C"/>
<rect x="120.0" y="120.0" width="12.0" height="12.0" fill="#8B5E3C"/>
<rect x="132.0" y="120.0" width="12.0" height="12.0" fill="#8B5E3C"/>
<rect x="144.0" y="120.0" width="12.0" height="12.0" fill="#8B5E3C"/>
<rect x="180.0" y="120.0" width="12.0" height="12.0" fill="#8B5E3C"/>
<rect x="192.0" y="120.0" width="12.0" height="12.0" fill="#8B5E3C"/>
<rect x="204.0" y="120.0" width="12.0" height="12.0" fill="#8B5E3C"/>
<rect x="216.0" y="120.0" width="12.0" height="12.0" fill="#8B5E3C"/>
<rect x="228.0" y="120.0" width="12.0" height="12.0" fill="#8B5E3C"/>
<rect x="288.0" y="120.0" width="12.0" height="12.0" fill="#8B5E3C"/>
<rect x="0.0" y="132.0" width="12.0" height="12.0" fill="#8B5E3C"/>
<rect x="12.0" y="132.0" width="12.0" height="12.0" fill="#8B5E3C"/>
<rect x="24.0" y="132.0" width="12.0" height="12.0" fill="#8B5E3C"/>
<rect x="48.0" y="132.0" width="12.0" height="12.0" fill="#8B5E3C"/>
<rect x="60.0" y="132.0" width="12.0" height="12.0" fill="#8B5E3C"/>
<rect x="96.0" y="132.0" width="12.0" height="12.0" fill="#8B5E3C"/>
<rect x="120.0" y="132.0" width="12.0" height="12.0" fill="#8B5E3C"/>
<rect x="180.0" y="132.0" width="12.0" height="12.0" fill="#8B5E3C"/>
<rect x="192.0" y="132.0" width="12.0" height="12.0" fill="#8B5E3C"/>
<rect x="204.0" y="132.0" width="12.0" height="12.0" fill="#8B5E3C"/>
<rect x="252.0" y="132.0" width="12.0" height="12.0" fill="#8B5E3C"/>
<rect x="264.0" y="132.0" width="12.0" height="12.0" fill="#8B5E3C"/>
<rect x="48.0" y="144.0" width="12.0" height="12.0" fill="#8B5E3C"/>
<rect x="72.0" y="144.0" width="12.0" height="12.0" fill="#8B5E3C"/>
<rect x="84.0" y="144.0" width="12.0" height="12.0" fill="#8B5E3C"/>
<rect x="96.0" y="144.0" width="12.0" height="12.0" fill="#8B5E3C"/>
<rect x="108.0" y="144.0" width="12.0" height="12.0" fill="#8B5E3C"/>
<rect x="120.0" y="144.0" width="12.0" height="12.0" fill="#8B5E3C"/>
<rect x="156.0" y="144.0" width="12.0" height="12.0" fill="#8B5E3C"/>
<rect x="204.0" y="144.0" width="12.0" height="12.0" fill="#8B5E3C"/>
<rect x="216.0" y="144.0" width="12.0" height="12.0" fill="#8B5E3C"/>
<rect x="228.0" y="144.0" width="12.0" height="12.0" fill="#8B5E3C"/>
<rect x="240.0" y="144.0" width="12.0" height="12.0" fill="#8B5E3C"/>
<rect x="252.0" y="144.0" width="12.0" height="12.0" fill="#8B5E3C"/>
<rect x="36.0" y="156.0" width="12.0" height="12.0" fill="#8B5E3C"/>
<rect x="108.0" y="156.0" width="12.0" height="12.0" fill="#8B5E3C"/>
<rect x="132.0" y="156.0" width="12.0" height="12.0" fill="#8B5E3C"/>
<rect x="168.0" y="156.0" width="12.0" height="12.0" fill="#8B5E3C"/>
<rect x="180.0" y="156.0" width="12.0" height="12.0" fill="#8B5E3C"/>
<rect x="216.0" y="156.0" width="12.0" height="12.0" fill="#8B5E3C"/>
<rect x="228.0" y="156.0" width="12.0" height="12.0" fill="#8B5E3C"/>
<rect x="240.0" y="156.0" width="12.0" height="12.0" fill="#8B5E3C"/>
<rect x="276.0" y="156.0" width="12.0" height="12.0" fill="#8B5E3C"/>
<rect x="24.0" y="168.0" width="12.0" height="12.0" fill="#8B5E3C"/>
<rect x="48.0" y="168.0" width="12.0" height="12.0" fill="#8B5E3C"/>
<rect x="60.0" y="168.0" width="12.0" height="12.0" fill="#8B5E3C"/>
<rect x="120.0" y="168.0" width="12.0" height="12.0" fill="#8B5E3C"/>
<rect x="156.0" y="168.0" width="12.0" height="12.0" fill="#8B5E3C"/>
<rect x="168.0" y="168.0" width="12.0" height="12.0" fill="#8B5E3C"/>
<rect x="180.0" y="168.0" width="12.0" height="12.0" fill="#8B5E3C"/>
<rect x="192.0" y="168.0" width="12.0" height="12.0" fill="#8B5E3C"/>
<rect x="216.0" y="168.0" width="12.0" height="12.0" fill="#8B5E3C"/>
<rect x="228.0" y="168.0" width="12.0" height="12.0" fill="#8B5E3C"/>
<rect x="240.0" y="168.0" width="12.0" height="12.0" fill="#8B5E3C"/>
<rect x="264.0" y="168.0" width="12.0" height="12.0" fill="#8B5E3C"/>
<rect x="12.0" y="180.0" width="12.0" height="12.0" fill="#8B5E3C"/>
<rect x="72.0" y="180.0" width="12.0" height="12.0" fill="#8B5E3C"/>
<rect x="84.0" y="180.0" width="12.0" height="12.0" fill="#8B5E3C"/>
<rect x="96.0" y="180.0" width="12.0" height="12.0" fill="#8B5E3C"/>
<rect x="108.0" y="180.0" width="12.0" height="12.0" fill="#8B5E3C"/>
<rect x="132.0" y="180.0" width="12.0" height="12.0" fill="#8B5E3C"/>
<rect x="180.0" y="180.0" width="12.0" height="12.0" fill="#8B5E3C"/>
<rect x="228.0" y="180.0" width="12.0" height="12.0" fill="#8B5E3C"/>
<rect x="252.0" y="180.0" width="12.0" height="12.0" fill="#8B5E3C"/>
<rect x="264.0" y="180.0" width="12.0" height="12.0" fill="#8B5E3C"/>
<rect x="36.0" y="192.0" width="12.0" height="12.0" fill="#8B5E3C"/>
<rect x="180.0" y="192.0" width="12.0" height="12.0" fill="#8B5E3C"/>
<rect x="228.0" y="192.0" width="12.0" height="12.0" fill="#8B5E3C"/>
<rect x="240.0" y="192.0" width="12.0" height="12.0" fill="#8B5E3C"/>
<rect x="252.0" y="192.0" width="12.0" height="12.0" fill="#8B5E3C"/>
<rect x="264.0" y="192.0" width="12.0" height="12.0" fill="#8B5E3C"/>
<rect x="276.0" y="192.0" width="12.0" height="12.0" fill="#8B5E3C"/>
<rect x="288.0" y="192.0" width="12.0" height="12.0" fill="#8B5E3C"/>
<rect x="132.0" y="204.0" width="12.0" height="12.0" fill="#8B5E3C"/>
<rect x="168.0" y="204.0" width="12.0" height="12.0" fill="#8B5E3C"/>
<rect x="204.0" y="204.0" width="12.0" height="12.0" fill="#8B5E3C"/>
<rect x="228.0" y="204.0" width="12.0" height="12.0" fill="#8B5E3C"/>
<rect x="276.0" y="204.0" width="12.0" height="12.0" fill="#8B5E3C"/>
<rect x="288.0" y="204.0" width="12.0" height="12.0" fill="#8B5E3C"/>
<rect x="108.0" y="216.0" width="12.0" height="12.0" fill="#8B5E3C"/>
<rect x="120.0" y="216.0" width="12.0" height="12.0" fill="#8B5E3C"/>
<rect x="132.0" y="216.0" width="12.0" height="12.0" fill="#8B5E3C"/>
<rect x="156.0" y="216.0" width="12.0" height="12.0" fill="#8B5E3C"/>
<rect x="180.0" y="216.0" width="12.0" height="12.0" fill="#8B5E3C"/>
<rect x="192.0" y="216.0" width="12.0" height="12.0" fill="#8B5E3C"/>
<rect x="204.0" y="216.0" width="12.0" height="12.0" fill="#8B5E3C"/>
<rect x="240.0" y="216.0" width="12.0" height="12.0" fill="#8B5E3C"/>
<rect x="288.0" y="216.0" width="12.0" height="12.0" fill="#8B5E3C"/>
<rect x="96.0" y="228.0" width="12.0" height="12.0" fill="#8B5E3C"/>
<rect x="108.0" y="228.0" width="12.0" height="12.0" fill="#8B5E3C"/>
<rect x="132.0" y="228.0" width="12.0" height="12.0" fill="#8B5E3C"/>
<rect x="144.0" y="228.0" width="12.0" height="12.0" fill="#8B5E3C"/>
<rect x="156.0" y="228.0" width="12.0" height="12.0" fill="#8B5E3C"/>
<rect x="192.0" y="228.0" width="12.0" height="12.0" fill="#8B5E3C"/>
<rect x="204.0" y="228.0" width="12.0" height="12.0" fill="#8B5E3C"/>
<rect x="252.0" y="228.0" width="12.0" height="12.0" fill="#8B5E3C"/>
<rect x="264.0" y="228.0" width="12.0" height="12.0" fill="#8B5E3C"/>
<rect x="288.0" y="228.0" width="12.0" height="12.0" fill="#8B5E3C"/>
<rect x="96.0" y="240.0" width="12.0" height="12.0" fill="#8B5E3C"/>
<rect x="144.0" y="240.0" width="12.0" height="12.0" fill="#8B5E3C"/>
<rect x="168.0" y="240.0" width="12.0" height="12.0" fill="#8B5E3C"/>
<rect x="204.0" y="240.0" width="12.0" height="12.0" fill="#8B5E3C"/>
<rect x="240.0" y="240.0" width="12.0" height="12.0" fill="#8B5E3C"/>
<rect x="252.0" y="240.0" width="12.0" height="12.0" fill="#8B5E3C"/>
<rect x="276.0" y="240.0" width="12.0" height="12.0" fill="#8B5E3C"/>
<rect x="288.0" y="240.0" width="12.0" height="12.0" fill="#8B5E3C"/>
<rect x="96.0" y="252.0" width="12.0" height="12.0" fill="#8B5E3C"/>
<rect x="108.0" y="252.0" width="12.0" height="12.0" fill="#8B5E3C"/>
<rect x="120.0" y="252.0" width="12.0" height="12.0" fill="#8B5E3C"/>
<rect x="132.0" y="252.0" width="12.0" height="12.0" fill="#8B5E3C"/>
<rect x="144.0" y="252.0" width="12.0" height="12.0" fill="#8B5E3C"/>
<rect x="168.0" y="252.0" width="12.0" height="12.0" fill="#8B5E3C"/>
<rect x="192.0" y="252.0" width="12.0" height="12.0" fill="#8B5E3C"/>
<rect x="204.0" y="252.0" width="12.0" height="12.0" fill="#8B5E3C"/>
<rect x="216.0" y="252.0" width="12.0" height="12.0" fill="#8B5E3C"/>
<rect x="228.0" y="252.0" width="12.0" height="12.0" fill="#8B5E3C"/>
<rect x="240.0" y="252.0" width="12.0" height="12.0" fill="#8B5E3C"/>
<rect x="276.0" y="252.0" width="12.0" height="12.0" fill="#8B5E3C"/>
<rect x="108.0" y="264.0" width="12.0" height="12.0" fill="#8B5E3C"/>
<rect x="132.0" y="264.0" width="12.0" height="12.0" fill="#8B5E3C"/>
<rect x="168.0" y="264.0" width="12.0" height="12.0" fill="#8B5E3C"/>
<rect x="216.0" y="264.0" width="12.0" height="12.0" fill="#8B5E3C"/>
<rect x="264.0" y="264.0" width="12.0" height="12.0" fill="#8B5E3C"/>
<rect x="276.0" y="264.0" width="12.0" height="12.0" fill="#8B5E3C"/>
<rect x="288.0" y="264.0" width="12.0" height="12.0" fill="#8B5E3C"/>
<rect x="96.0" y="276.0" width="12.0" height="12.0" fill="#8B5E3C"/>
<rect x="108.0" y="276.0" width="12.0" height="12.0" fill="#8B5E3C"/>
<rect x="132.0" y="276.0" width="12.0" height="12.0" fill="#8B5E3C"/>
<rect x="144.0" y="276.0" width="12.0" height="12.0" fill="#8B5E3C"/>
<rect x="156.0" y="276.0" width="12.0" height="12.0" fill="#8B5E3C"/>
<rect x="204.0" y="276.0" width="12.0" height="12.0" fill="#8B5E3C"/>
<rect x="216.0" y="276.0" width="12.0" height="12.0" fill="#8B5E3C"/>
<rect x="228.0" y="276.0" width="12.0" height="12.0" fill="#8B5E3C"/>
<rect x="252.0" y="276.0" width="12.0" height="12.0" fill="#8B5E3C"/>
<rect x="264.0" y="276.0" width="12.0" height="12.0" fill="#8B5E3C"/>
<rect x="276.0" y="276.0" width="12.0" height="12.0" fill="#8B5E3C"/>
<rect x="120.0" y="288.0" width="12.0" height="12.0" fill="#8B5E3C"/>
<rect x="144.0" y="288.0" width="12.0" height="12.0" fill="#8B5E3C"/>
<rect x="156.0" y="288.0" width="12.0" height="12.0" fill="#8B5E3C"/>
<rect x="168.0" y="288.0" width="12.0" height="12.0" fill="#8B5E3C"/>
<rect x="180.0" y="288.0" width="12.0" height="12.0" fill="#8B5E3C"/>
<rect x="216.0" y="288.0" width="12.0" height="12.0" fill="#8B5E3C"/>
<rect x="240.0" y="288.0" width="12.0" height="12.0" fill="#8B5E3C"/>
<rect x="252.0" y="288.0" width="12.0" height="12.0" fill="#8B5E3C"/>
<rect x="264.0" y="288.0" width="12.0" height="12.0" fill="#8B5E3C"/>
<rect x="276.0" y="288.0" width="12.0" height="12.0" fill="#8B5E3C"/>
<rect x="288.0" y="288.0" width="12.0" height="12.0" fill="#8B5E3C"/>
<rect x="0" y="0" width="84.0" height="84.0" fill="#8B5E3C"/><rect x="12.0" y="12.0" width="60.0" height="60.0" fill="#FFFFFF"/><rect x="24.0" y="24.0" width="36.0" height="36.0" fill="#8B5E3C"/>
<rect x="216.0" y="0" width="84.0" height="84.0" fill="#8B5E3C"/><rect x="228.0" y="12.0" width="60.0" height="60.0" fill="#FFFFFF"/><rect x="240.0" y="24.0" width="36.0" height="36.0" fill="#8B5E3C"/>
<rect x="0" y="216.0" width="84.0" height="84.0" fill="#8B5E3C"/><rect x="12.0" y="228.0" width="60.0" height="60.0" fill="#FFFFFF"/><rect x="24.0" y="240.0" width="36.0" height="36.0" fill="#8B5E3C"/>
</svg>